<svg xmlns="http://www.w3.org/2000/svg" width="920" height="560" viewBox="0 0 920 560">
<rect width="100%" height="100%" fill="white"/>
<style>text{font-family:Arial,Helvetica,sans-serif;fill:#1f2937}.tick{font-size:12px}.label{font-size:15px}.title{font-size:22px;font-weight:700}.grid{stroke:#d1d5db;stroke-width:1;stroke-dasharray:4 5}.axis{stroke:#111827;stroke-width:1.5}.line{fill:none;stroke:#1f77b4;stroke-width:3;stroke-linejoin:round;stroke-linecap:round}.point{fill:#1f77b4;stroke:white;stroke-width:2}</style>
<text class="title" x="460.0" y="34" text-anchor="middle">Qwen3 MoE 30B-A3B MAST Training Loss</text>
<line class="grid" x1="88" y1="482.00" x2="884" y2="482.00"/>
<text class="tick" x="76" y="486.00" text-anchor="end">9.5</text>
<line class="grid" x1="88" y1="412.00" x2="884" y2="412.00"/>
<text class="tick" x="76" y="416.00" text-anchor="end">10.0</text>
<line class="grid" x1="88" y1="342.00" x2="884" y2="342.00"/>
<text class="tick" x="76" y="346.00" text-anchor="end">10.5</text>
<line class="grid" x1="88" y1="272.00" x2="884" y2="272.00"/>
<text class="tick" x="76" y="276.00" text-anchor="end">11.0</text>
<line class="grid" x1="88" y1="202.00" x2="884" y2="202.00"/>
<text class="tick" x="76" y="206.00" text-anchor="end">11.5</text>
<line class="grid" x1="88" y1="132.00" x2="884" y2="132.00"/>
<text class="tick" x="76" y="136.00" text-anchor="end">12.0</text>
<line class="grid" x1="88" y1="62.00" x2="884" y2="62.00"/>
<text class="tick" x="76" y="66.00" text-anchor="end">12.5</text>
<line class="grid" x1="88.00" y1="62" x2="88.00" y2="482"/>
<text class="tick" x="88.00" y="506" text-anchor="middle">1</text>
<line class="grid" x1="129.89" y1="62" x2="129.89" y2="482"/>
<text class="tick" x="129.89" y="506" text-anchor="middle">2</text>
<line class="grid" x1="213.68" y1="62" x2="213.68" y2="482"/>
<text class="tick" x="213.68" y="506" text-anchor="middle">4</text>
<line class="grid" x1="297.47" y1="62" x2="297.47" y2="482"/>
<text class="tick" x="297.47" y="506" text-anchor="middle">6</text>
<line class="grid" x1="381.26" y1="62" x2="381.26" y2="482"/>
<text class="tick" x="381.26" y="506" text-anchor="middle">8</text>
<line class="grid" x1="465.05" y1="62" x2="465.05" y2="482"/>
<text class="tick" x="465.05" y="506" text-anchor="middle">10</text>
<line class="grid" x1="548.84" y1="62" x2="548.84" y2="482"/>
<text class="tick" x="548.84" y="506" text-anchor="middle">12</text>
<line class="grid" x1="632.63" y1="62" x2="632.63" y2="482"/>
<text class="tick" x="632.63" y="506" text-anchor="middle">14</text>
<line class="grid" x1="716.42" y1="62" x2="716.42" y2="482"/>
<text class="tick" x="716.42" y="506" text-anchor="middle">16</text>
<line class="grid" x1="800.21" y1="62" x2="800.21" y2="482"/>
<text class="tick" x="800.21" y="506" text-anchor="middle">18</text>
<line class="grid" x1="884.00" y1="62" x2="884.00" y2="482"/>
<text class="tick" x="884.00" y="506" text-anchor="middle">20</text>
<line class="axis" x1="88" y1="482" x2="884" y2="482"/>
<line class="axis" x1="88" y1="62" x2="88" y2="482"/>
<text class="label" x="460.0" y="536" text-anchor="middle">Training step</text>
<text class="label" transform="translate(24 280.0) rotate(-90)" text-anchor="middle">Loss</text>
<polyline class="line" points="88.00,79.02 129.89,81.14 171.79,85.61 213.68,92.24 255.58,101.13 297.47,112.38 339.37,125.14 381.26,140.13 423.16,157.33 465.05,176.44 506.95,197.38 548.84,219.78 590.74,244.26 632.63,268.22 674.53,297.78 716.42,325.93 758.32,358.37 800.21,389.95 842.11,422.79 884.00,459.42"/>
<circle class="point" cx="88.00" cy="79.02" r="4.2"><title>step 1: 12.37845</title></circle>
<circle class="point" cx="129.89" cy="81.14" r="4.2"><title>step 2: 12.36325</title></circle>
<circle class="point" cx="171.79" cy="85.61" r="4.2"><title>step 3: 12.33137</title></circle>
<circle class="point" cx="213.68" cy="92.24" r="4.2"><title>step 4: 12.28397</title></circle>
<circle class="point" cx="255.58" cy="101.13" r="4.2"><title>step 5: 12.22048</title></circle>
<circle class="point" cx="297.47" cy="112.38" r="4.2"><title>step 6: 12.14017</title></circle>
<circle class="point" cx="339.37" cy="125.14" r="4.2"><title>step 7: 12.04897</title></circle>
<circle class="point" cx="381.26" cy="140.13" r="4.2"><title>step 8: 11.94193</title></circle>
<circle class="point" cx="423.16" cy="157.33" r="4.2"><title>step 9: 11.81908</title></circle>
<circle class="point" cx="465.05" cy="176.44" r="4.2"><title>step 10: 11.68259</title></circle>
<circle class="point" cx="506.95" cy="197.38" r="4.2"><title>step 11: 11.53297</title></circle>
<circle class="point" cx="548.84" cy="219.78" r="4.2"><title>step 12: 11.37303</title></circle>
<circle class="point" cx="590.74" cy="244.26" r="4.2"><title>step 13: 11.19815</title></circle>
<circle class="point" cx="632.63" cy="268.22" r="4.2"><title>step 14: 11.02700</title></circle>
<circle class="point" cx="674.53" cy="297.78" r="4.2"><title>step 15: 10.81583</title></circle>
<circle class="point" cx="716.42" cy="325.93" r="4.2"><title>step 16: 10.61479</title></circle>
<circle class="point" cx="758.32" cy="358.37" r="4.2"><title>step 17: 10.38304</title></circle>
<circle class="point" cx="800.21" cy="389.95" r="4.2"><title>step 18: 10.15753</title></circle>
<circle class="point" cx="842.11" cy="422.79" r="4.2"><title>step 19: 9.92291</title></circle>
<circle class="point" cx="884.00" cy="459.42" r="4.2"><title>step 20: 9.66127</title></circle>
<text class="tick" x="98.00" y="69.02" text-anchor="start">12.37845</text>
<text class="tick" x="874.00" y="449.42" text-anchor="end">9.66127</text>
</svg>