<svg xmlns="http://www.w3.org/2000/svg" width="1600" height="1000" viewBox="0 0 1600 1000">
<rect width="100%" height="100%" fill="white"/>
<text x="32" y="34" font-family="sans-serif" font-size="22" font-weight="700">Real Llama3 optimizer profile vs model size</text>
<text x="32" y="58" font-family="sans-serif" font-size="12" fill="#475569">Y axes are log scale. Missing series points timed out or were not run.</text>
<line x1="32" y1="84" x2="60" y2="84" stroke="#2563eb" stroke-width="3"/>
<text x="68" y="88" font-family="sans-serif" font-size="12" fill="#334155">mesh_ndim=1</text>
<line x1="212" y1="84" x2="240" y2="84" stroke="#dc2626" stroke-width="3"/>
<text x="248" y="88" font-family="sans-serif" font-size="12" fill="#334155">mesh_ndim=2</text>
<text x="62" y="106" font-family="sans-serif" font-size="14" font-weight="700">strategy enum (s)</text>
<rect x="62" y="120" width="360" height="180" fill="#f8fafc" stroke="#cbd5e1"/>
<line x1="62" y1="300" x2="422" y2="300" stroke="#64748b"/>
<line x1="62" y1="120" x2="62" y2="300" stroke="#64748b"/>
<text x="12" y="132" font-family="sans-serif" font-size="10" fill="#64748b">9.9</text>
<text x="12" y="300" font-family="sans-serif" font-size="10" fill="#64748b">0.54</text>
<text x="46.0" y="318" font-family="sans-serif" font-size="10" fill="#64748b">1.2</text>
<text x="47.75893682743604" y="318" font-family="sans-serif" font-size="10" fill="#64748b">3.2</text>
<text x="52.04521657000967" y="318" font-family="sans-serif" font-size="10" fill="#64748b">8</text>
<text x="107.67414055497832" y="318" font-family="sans-serif" font-size="10" fill="#64748b">71</text>
<text x="406.0" y="318" font-family="sans-serif" font-size="10" fill="#64748b">406</text>
<polyline points="62.0,286.0 63.8,300.0 68.0,265.4 123.7,187.9 422.0,203.6" fill="none" stroke="#2563eb" stroke-width="2.4"/>
<circle cx="62.0" cy="286.0" r="3.5" fill="#2563eb"/>
<circle cx="63.8" cy="300.0" r="3.5" fill="#2563eb"/>
<circle cx="68.0" cy="265.4" r="3.5" fill="#2563eb"/>
<circle cx="123.7" cy="187.9" r="3.5" fill="#2563eb"/>
<circle cx="422.0" cy="203.6" r="3.5" fill="#2563eb"/>
<polyline points="62.0,130.3 63.8,120.0 68.0,124.3" fill="none" stroke="#dc2626" stroke-width="2.4"/>
<circle cx="62.0" cy="130.3" r="3.5" fill="#dc2626"/>
<circle cx="63.8" cy="120.0" r="3.5" fill="#dc2626"/>
<circle cx="68.0" cy="124.3" r="3.5" fill="#dc2626"/>
<text x="452" y="106" font-family="sans-serif" font-size="14" font-weight="700">cost estimation (s)</text>
<rect x="452" y="120" width="360" height="180" fill="#f8fafc" stroke="#cbd5e1"/>
<line x1="452" y1="300" x2="812" y2="300" stroke="#64748b"/>
<line x1="452" y1="120" x2="452" y2="300" stroke="#64748b"/>
<text x="402" y="132" font-family="sans-serif" font-size="10" fill="#64748b">5</text>
<text x="402" y="300" font-family="sans-serif" font-size="10" fill="#64748b">0.54</text>
<text x="436.0" y="318" font-family="sans-serif" font-size="10" fill="#64748b">1.2</text>
<text x="437.75893682743606" y="318" font-family="sans-serif" font-size="10" fill="#64748b">3.2</text>
<text x="442.04521657000964" y="318" font-family="sans-serif" font-size="10" fill="#64748b">8</text>
<text x="497.6741405549783" y="318" font-family="sans-serif" font-size="10" fill="#64748b">71</text>
<text x="796.0" y="318" font-family="sans-serif" font-size="10" fill="#64748b">406</text>
<polyline points="452.0,300.0 453.8,298.4 458.0,297.8 513.7,281.4 812.0,299.1" fill="none" stroke="#2563eb" stroke-width="2.4"/>
<circle cx="452.0" cy="300.0" r="3.5" fill="#2563eb"/>
<circle cx="453.8" cy="298.4" r="3.5" fill="#2563eb"/>
<circle cx="458.0" cy="297.8" r="3.5" fill="#2563eb"/>
<circle cx="513.7" cy="281.4" r="3.5" fill="#2563eb"/>
<circle cx="812.0" cy="299.1" r="3.5" fill="#2563eb"/>
<polyline points="452.0,124.3 453.8,120.0 458.0,124.5" fill="none" stroke="#dc2626" stroke-width="2.4"/>
<circle cx="452.0" cy="124.3" r="3.5" fill="#dc2626"/>
<circle cx="453.8" cy="120.0" r="3.5" fill="#dc2626"/>
<circle cx="458.0" cy="124.5" r="3.5" fill="#dc2626"/>
<text x="842" y="106" font-family="sans-serif" font-size="14" font-weight="700">ILP construction (s)</text>
<rect x="842" y="120" width="360" height="180" fill="#f8fafc" stroke="#cbd5e1"/>
<line x1="842" y1="300" x2="1202" y2="300" stroke="#64748b"/>
<line x1="842" y1="120" x2="842" y2="300" stroke="#64748b"/>
<text x="792" y="132" font-family="sans-serif" font-size="10" fill="#64748b">14</text>
<text x="792" y="300" font-family="sans-serif" font-size="10" fill="#64748b">0.26</text>
<text x="826.0" y="318" font-family="sans-serif" font-size="10" fill="#64748b">1.2</text>
<text x="827.7589368274361" y="318" font-family="sans-serif" font-size="10" fill="#64748b">3.2</text>
<text x="832.0452165700096" y="318" font-family="sans-serif" font-size="10" fill="#64748b">8</text>
<text x="887.6741405549783" y="318" font-family="sans-serif" font-size="10" fill="#64748b">71</text>
<text x="1186.0" y="318" font-family="sans-serif" font-size="10" fill="#64748b">406</text>
<polyline points="842.0,300.0 843.8,292.0 848.0,254.2 903.7,203.9 1202.0,208.5" fill="none" stroke="#2563eb" stroke-width="2.4"/>
<circle cx="842.0" cy="300.0" r="3.5" fill="#2563eb"/>
<circle cx="843.8" cy="292.0" r="3.5" fill="#2563eb"/>
<circle cx="848.0" cy="254.2" r="3.5" fill="#2563eb"/>
<circle cx="903.7" cy="203.9" r="3.5" fill="#2563eb"/>
<circle cx="1202.0" cy="208.5" r="3.5" fill="#2563eb"/>
<polyline points="842.0,134.3 843.8,120.0 848.0,129.6" fill="none" stroke="#dc2626" stroke-width="2.4"/>
<circle cx="842.0" cy="134.3" r="3.5" fill="#dc2626"/>
<circle cx="843.8" cy="120.0" r="3.5" fill="#dc2626"/>
<circle cx="848.0" cy="129.6" r="3.5" fill="#dc2626"/>
<text x="1232" y="106" font-family="sans-serif" font-size="14" font-weight="700">objective build (s)</text>
<rect x="1232" y="120" width="360" height="180" fill="#f8fafc" stroke="#cbd5e1"/>
<line x1="1232" y1="300" x2="1592" y2="300" stroke="#64748b"/>
<line x1="1232" y1="120" x2="1232" y2="300" stroke="#64748b"/>
<text x="1182" y="132" font-family="sans-serif" font-size="10" fill="#64748b">3.3</text>
<text x="1182" y="300" font-family="sans-serif" font-size="10" fill="#64748b">0.053</text>
<text x="1216.0" y="318" font-family="sans-serif" font-size="10" fill="#64748b">1.2</text>
<text x="1217.758936827436" y="318" font-family="sans-serif" font-size="10" fill="#64748b">3.2</text>
<text x="1222.0452165700096" y="318" font-family="sans-serif" font-size="10" fill="#64748b">8</text>
<text x="1277.6741405549783" y="318" font-family="sans-serif" font-size="10" fill="#64748b">71</text>
<text x="1576.0" y="318" font-family="sans-serif" font-size="10" fill="#64748b">406</text>
<polyline points="1232.0,300.0 1233.8,295.0 1238.0,295.7 1293.7,286.3 1592.0,288.4" fill="none" stroke="#2563eb" stroke-width="2.4"/>
<circle cx="1232.0" cy="300.0" r="3.5" fill="#2563eb"/>
<circle cx="1233.8" cy="295.0" r="3.5" fill="#2563eb"/>
<circle cx="1238.0" cy="295.7" r="3.5" fill="#2563eb"/>
<circle cx="1293.7" cy="286.3" r="3.5" fill="#2563eb"/>
<circle cx="1592.0" cy="288.4" r="3.5" fill="#2563eb"/>
<polyline points="1232.0,138.1 1233.8,133.0 1238.0,120.0" fill="none" stroke="#dc2626" stroke-width="2.4"/>
<circle cx="1232.0" cy="138.1" r="3.5" fill="#dc2626"/>
<circle cx="1233.8" cy="133.0" r="3.5" fill="#dc2626"/>
<circle cx="1238.0" cy="120.0" r="3.5" fill="#dc2626"/>
<text x="62" y="336" font-family="sans-serif" font-size="14" font-weight="700">solve (s)</text>
<rect x="62" y="350" width="360" height="180" fill="#f8fafc" stroke="#cbd5e1"/>
<line x1="62" y1="530" x2="422" y2="530" stroke="#64748b"/>
<line x1="62" y1="350" x2="62" y2="530" stroke="#64748b"/>
<text x="12" y="362" font-family="sans-serif" font-size="10" fill="#64748b">86</text>
<text x="12" y="530" font-family="sans-serif" font-size="10" fill="#64748b">0.49</text>
<text x="46.0" y="548" font-family="sans-serif" font-size="10" fill="#64748b">1.2</text>
<text x="47.75893682743604" y="548" font-family="sans-serif" font-size="10" fill="#64748b">3.2</text>
<text x="52.04521657000967" y="548" font-family="sans-serif" font-size="10" fill="#64748b">8</text>
<text x="107.67414055497832" y="548" font-family="sans-serif" font-size="10" fill="#64748b">71</text>
<text x="406.0" y="548" font-family="sans-serif" font-size="10" fill="#64748b">406</text>
<polyline points="62.0,530.0 63.8,523.9 68.0,523.9 123.7,490.5 422.0,472.4" fill="none" stroke="#2563eb" stroke-width="2.4"/>
<circle cx="62.0" cy="530.0" r="3.5" fill="#2563eb"/>
<circle cx="63.8" cy="523.9" r="3.5" fill="#2563eb"/>
<circle cx="68.0" cy="523.9" r="3.5" fill="#2563eb"/>
<circle cx="123.7" cy="490.5" r="3.5" fill="#2563eb"/>
<circle cx="422.0" cy="472.4" r="3.5" fill="#2563eb"/>
<polyline points="62.0,352.4 63.8,353.0 68.0,350.0" fill="none" stroke="#dc2626" stroke-width="2.4"/>
<circle cx="62.0" cy="352.4" r="3.5" fill="#dc2626"/>
<circle cx="63.8" cy="353.0" r="3.5" fill="#dc2626"/>
<circle cx="68.0" cy="350.0" r="3.5" fill="#dc2626"/>
<text x="452" y="336" font-family="sans-serif" font-size="14" font-weight="700">pipeline total (s)</text>
<rect x="452" y="350" width="360" height="180" fill="#f8fafc" stroke="#cbd5e1"/>
<line x1="452" y1="530" x2="812" y2="530" stroke="#64748b"/>
<line x1="452" y1="350" x2="452" y2="530" stroke="#64748b"/>
<text x="402" y="362" font-family="sans-serif" font-size="10" fill="#64748b">124</text>
<text x="402" y="530" font-family="sans-serif" font-size="10" fill="#64748b">3</text>
<text x="436.0" y="548" font-family="sans-serif" font-size="10" fill="#64748b">1.2</text>
<text x="437.75893682743606" y="548" font-family="sans-serif" font-size="10" fill="#64748b">3.2</text>
<text x="442.04521657000964" y="548" font-family="sans-serif" font-size="10" fill="#64748b">8</text>
<text x="497.6741405549783" y="548" font-family="sans-serif" font-size="10" fill="#64748b">71</text>
<text x="796.0" y="548" font-family="sans-serif" font-size="10" fill="#64748b">406</text>
<polyline points="452.0,530.0 453.8,514.5 458.0,508.1 513.7,438.3 812.0,419.0" fill="none" stroke="#2563eb" stroke-width="2.4"/>
<circle cx="452.0" cy="530.0" r="3.5" fill="#2563eb"/>
<circle cx="453.8" cy="514.5" r="3.5" fill="#2563eb"/>
<circle cx="458.0" cy="508.1" r="3.5" fill="#2563eb"/>
<circle cx="513.7" cy="438.3" r="3.5" fill="#2563eb"/>
<circle cx="812.0" cy="419.0" r="3.5" fill="#2563eb"/>
<polyline points="452.0,356.0 453.8,352.1 458.0,350.0" fill="none" stroke="#dc2626" stroke-width="2.4"/>
<circle cx="452.0" cy="356.0" r="3.5" fill="#dc2626"/>
<circle cx="453.8" cy="352.1" r="3.5" fill="#dc2626"/>
<circle cx="458.0" cy="350.0" r="3.5" fill="#dc2626"/>
<text x="842" y="336" font-family="sans-serif" font-size="14" font-weight="700">unique ILP vars</text>
<rect x="842" y="350" width="360" height="180" fill="#f8fafc" stroke="#cbd5e1"/>
<line x1="842" y1="530" x2="1202" y2="530" stroke="#64748b"/>
<line x1="842" y1="350" x2="842" y2="530" stroke="#64748b"/>
<text x="792" y="362" font-family="sans-serif" font-size="10" fill="#64748b">488.5K</text>
<text x="792" y="530" font-family="sans-serif" font-size="10" fill="#64748b">13.0K</text>
<text x="826.0" y="548" font-family="sans-serif" font-size="10" fill="#64748b">1.2</text>
<text x="827.7589368274361" y="548" font-family="sans-serif" font-size="10" fill="#64748b">3.2</text>
<text x="832.0452165700096" y="548" font-family="sans-serif" font-size="10" fill="#64748b">8</text>
<text x="887.6741405549783" y="548" font-family="sans-serif" font-size="10" fill="#64748b">71</text>
<text x="1186.0" y="548" font-family="sans-serif" font-size="10" fill="#64748b">406</text>
<polyline points="842.0,530.0 843.8,526.8 848.0,526.6 903.7,520.2 1202.0,515.7" fill="none" stroke="#2563eb" stroke-width="2.4"/>
<circle cx="842.0" cy="530.0" r="3.5" fill="#2563eb"/>
<circle cx="843.8" cy="526.8" r="3.5" fill="#2563eb"/>
<circle cx="848.0" cy="526.6" r="3.5" fill="#2563eb"/>
<circle cx="903.7" cy="520.2" r="3.5" fill="#2563eb"/>
<circle cx="1202.0" cy="515.7" r="3.5" fill="#2563eb"/>
<polyline points="842.0,350.6 843.8,350.0 848.0,350.1" fill="none" stroke="#dc2626" stroke-width="2.4"/>
<circle cx="842.0" cy="350.6" r="3.5" fill="#dc2626"/>
<circle cx="843.8" cy="350.0" r="3.5" fill="#dc2626"/>
<circle cx="848.0" cy="350.1" r="3.5" fill="#dc2626"/>
<text x="1232" y="336" font-family="sans-serif" font-size="14" font-weight="700">constraints</text>
<rect x="1232" y="350" width="360" height="180" fill="#f8fafc" stroke="#cbd5e1"/>
<line x1="1232" y1="530" x2="1592" y2="530" stroke="#64748b"/>
<line x1="1232" y1="350" x2="1232" y2="530" stroke="#64748b"/>
<text x="1182" y="362" font-family="sans-serif" font-size="10" fill="#64748b">177.2K</text>
<text x="1182" y="530" font-family="sans-serif" font-size="10" fill="#64748b">7.0K</text>
<text x="1216.0" y="548" font-family="sans-serif" font-size="10" fill="#64748b">1.2</text>
<text x="1217.758936827436" y="548" font-family="sans-serif" font-size="10" fill="#64748b">3.2</text>
<text x="1222.0452165700096" y="548" font-family="sans-serif" font-size="10" fill="#64748b">8</text>
<text x="1277.6741405549783" y="548" font-family="sans-serif" font-size="10" fill="#64748b">71</text>
<text x="1576.0" y="548" font-family="sans-serif" font-size="10" fill="#64748b">406</text>
<polyline points="1232.0,530.0 1233.8,522.3 1238.0,520.3 1293.7,500.0 1592.0,486.0" fill="none" stroke="#2563eb" stroke-width="2.4"/>
<circle cx="1232.0" cy="530.0" r="3.5" fill="#2563eb"/>
<circle cx="1233.8" cy="522.3" r="3.5" fill="#2563eb"/>
<circle cx="1238.0" cy="520.3" r="3.5" fill="#2563eb"/>
<circle cx="1293.7" cy="500.0" r="3.5" fill="#2563eb"/>
<circle cx="1592.0" cy="486.0" r="3.5" fill="#2563eb"/>
<polyline points="1232.0,351.3 1233.8,350.2 1238.0,350.0" fill="none" stroke="#dc2626" stroke-width="2.4"/>
<circle cx="1232.0" cy="351.3" r="3.5" fill="#dc2626"/>
<circle cx="1233.8" cy="350.2" r="3.5" fill="#dc2626"/>
<circle cx="1238.0" cy="350.0" r="3.5" fill="#dc2626"/>
</svg>