<svg xmlns="http://www.w3.org/2000/svg" width="1600" height="1000" viewBox="0 0 1600 1000">
<rect width="100%" height="100%" fill="white"/>
<text x="32" y="34" font-family="sans-serif" font-size="22" font-weight="700">Real Llama3 optimizer profile vs mesh dimension</text>
<text x="32" y="58" font-family="sans-serif" font-size="12" fill="#475569">Y axes are log scale. Missing series points timed out or were not run.</text>
<line x1="32" y1="84" x2="60" y2="84" stroke="#2563eb" stroke-width="3"/>
<text x="68" y="88" font-family="sans-serif" font-size="12" fill="#334155">model_key=1B</text>
<line x1="212" y1="84" x2="240" y2="84" stroke="#dc2626" stroke-width="3"/>
<text x="248" y="88" font-family="sans-serif" font-size="12" fill="#334155">model_key=3B</text>
<line x1="392" y1="84" x2="420" y2="84" stroke="#16a34a" stroke-width="3"/>
<text x="428" y="88" font-family="sans-serif" font-size="12" fill="#334155">model_key=405B</text>
<line x1="572" y1="84" x2="600" y2="84" stroke="#9333ea" stroke-width="3"/>
<text x="608" y="88" font-family="sans-serif" font-size="12" fill="#334155">model_key=70B</text>
<line x1="752" y1="84" x2="780" y2="84" stroke="#ea580c" stroke-width="3"/>
<text x="788" y="88" font-family="sans-serif" font-size="12" fill="#334155">model_key=8B</text>
<text x="62" y="106" font-family="sans-serif" font-size="14" font-weight="700">strategy enum (s)</text>
<rect x="62" y="120" width="360" height="180" fill="#f8fafc" stroke="#cbd5e1"/>
<line x1="62" y1="300" x2="422" y2="300" stroke="#64748b"/>
<line x1="62" y1="120" x2="62" y2="300" stroke="#64748b"/>
<text x="12" y="132" font-family="sans-serif" font-size="10" fill="#64748b">9.9</text>
<text x="12" y="300" font-family="sans-serif" font-size="10" fill="#64748b">0.54</text>
<text x="46.0" y="318" font-family="sans-serif" font-size="10" fill="#64748b">1</text>
<text x="406.0" y="318" font-family="sans-serif" font-size="10" fill="#64748b">2</text>
<polyline points="62.0,286.0 422.0,130.3" fill="none" stroke="#2563eb" stroke-width="2.4"/>
<circle cx="62.0" cy="286.0" r="3.5" fill="#2563eb"/>
<circle cx="422.0" cy="130.3" r="3.5" fill="#2563eb"/>
<polyline points="62.0,300.0 422.0,120.0" fill="none" stroke="#dc2626" stroke-width="2.4"/>
<circle cx="62.0" cy="300.0" r="3.5" fill="#dc2626"/>
<circle cx="422.0" cy="120.0" r="3.5" fill="#dc2626"/>
<circle cx="62.0" cy="203.6" r="3.5" fill="#16a34a"/>
<circle cx="62.0" cy="187.9" r="3.5" fill="#9333ea"/>
<polyline points="62.0,265.4 422.0,124.3" fill="none" stroke="#ea580c" stroke-width="2.4"/>
<circle cx="62.0" cy="265.4" r="3.5" fill="#ea580c"/>
<circle cx="422.0" cy="124.3" r="3.5" fill="#ea580c"/>
<text x="452" y="106" font-family="sans-serif" font-size="14" font-weight="700">cost estimation (s)</text>
<rect x="452" y="120" width="360" height="180" fill="#f8fafc" stroke="#cbd5e1"/>
<line x1="452" y1="300" x2="812" y2="300" stroke="#64748b"/>
<line x1="452" y1="120" x2="452" y2="300" stroke="#64748b"/>
<text x="402" y="132" font-family="sans-serif" font-size="10" fill="#64748b">5</text>
<text x="402" y="300" font-family="sans-serif" font-size="10" fill="#64748b">0.54</text>
<text x="436.0" y="318" font-family="sans-serif" font-size="10" fill="#64748b">1</text>
<text x="796.0" y="318" font-family="sans-serif" font-size="10" fill="#64748b">2</text>
<polyline points="452.0,300.0 812.0,124.3" fill="none" stroke="#2563eb" stroke-width="2.4"/>
<circle cx="452.0" cy="300.0" r="3.5" fill="#2563eb"/>
<circle cx="812.0" cy="124.3" r="3.5" fill="#2563eb"/>
<polyline points="452.0,298.4 812.0,120.0" fill="none" stroke="#dc2626" stroke-width="2.4"/>
<circle cx="452.0" cy="298.4" r="3.5" fill="#dc2626"/>
<circle cx="812.0" cy="120.0" r="3.5" fill="#dc2626"/>
<circle cx="452.0" cy="299.1" r="3.5" fill="#16a34a"/>
<circle cx="452.0" cy="281.4" r="3.5" fill="#9333ea"/>
<polyline points="452.0,297.8 812.0,124.5" fill="none" stroke="#ea580c" stroke-width="2.4"/>
<circle cx="452.0" cy="297.8" r="3.5" fill="#ea580c"/>
<circle cx="812.0" cy="124.5" r="3.5" fill="#ea580c"/>
<text x="842" y="106" font-family="sans-serif" font-size="14" font-weight="700">ILP construction (s)</text>
<rect x="842" y="120" width="360" height="180" fill="#f8fafc" stroke="#cbd5e1"/>
<line x1="842" y1="300" x2="1202" y2="300" stroke="#64748b"/>
<line x1="842" y1="120" x2="842" y2="300" stroke="#64748b"/>
<text x="792" y="132" font-family="sans-serif" font-size="10" fill="#64748b">14</text>
<text x="792" y="300" font-family="sans-serif" font-size="10" fill="#64748b">0.26</text>
<text x="826.0" y="318" font-family="sans-serif" font-size="10" fill="#64748b">1</text>
<text x="1186.0" y="318" font-family="sans-serif" font-size="10" fill="#64748b">2</text>
<polyline points="842.0,300.0 1202.0,134.3" fill="none" stroke="#2563eb" stroke-width="2.4"/>
<circle cx="842.0" cy="300.0" r="3.5" fill="#2563eb"/>
<circle cx="1202.0" cy="134.3" r="3.5" fill="#2563eb"/>
<polyline points="842.0,292.0 1202.0,120.0" fill="none" stroke="#dc2626" stroke-width="2.4"/>
<circle cx="842.0" cy="292.0" r="3.5" fill="#dc2626"/>
<circle cx="1202.0" cy="120.0" r="3.5" fill="#dc2626"/>
<circle cx="842.0" cy="208.5" r="3.5" fill="#16a34a"/>
<circle cx="842.0" cy="203.9" r="3.5" fill="#9333ea"/>
<polyline points="842.0,254.2 1202.0,129.6" fill="none" stroke="#ea580c" stroke-width="2.4"/>
<circle cx="842.0" cy="254.2" r="3.5" fill="#ea580c"/>
<circle cx="1202.0" cy="129.6" r="3.5" fill="#ea580c"/>
<text x="1232" y="106" font-family="sans-serif" font-size="14" font-weight="700">objective build (s)</text>
<rect x="1232" y="120" width="360" height="180" fill="#f8fafc" stroke="#cbd5e1"/>
<line x1="1232" y1="300" x2="1592" y2="300" stroke="#64748b"/>
<line x1="1232" y1="120" x2="1232" y2="300" stroke="#64748b"/>
<text x="1182" y="132" font-family="sans-serif" font-size="10" fill="#64748b">3.3</text>
<text x="1182" y="300" font-family="sans-serif" font-size="10" fill="#64748b">0.053</text>
<text x="1216.0" y="318" font-family="sans-serif" font-size="10" fill="#64748b">1</text>
<text x="1576.0" y="318" font-family="sans-serif" font-size="10" fill="#64748b">2</text>
<polyline points="1232.0,300.0 1592.0,138.1" fill="none" stroke="#2563eb" stroke-width="2.4"/>
<circle cx="1232.0" cy="300.0" r="3.5" fill="#2563eb"/>
<circle cx="1592.0" cy="138.1" r="3.5" fill="#2563eb"/>
<polyline points="1232.0,295.0 1592.0,133.0" fill="none" stroke="#dc2626" stroke-width="2.4"/>
<circle cx="1232.0" cy="295.0" r="3.5" fill="#dc2626"/>
<circle cx="1592.0" cy="133.0" r="3.5" fill="#dc2626"/>
<circle cx="1232.0" cy="288.4" r="3.5" fill="#16a34a"/>
<circle cx="1232.0" cy="286.3" r="3.5" fill="#9333ea"/>
<polyline points="1232.0,295.7 1592.0,120.0" fill="none" stroke="#ea580c" stroke-width="2.4"/>
<circle cx="1232.0" cy="295.7" r="3.5" fill="#ea580c"/>
<circle cx="1592.0" cy="120.0" r="3.5" fill="#ea580c"/>
<text x="62" y="336" font-family="sans-serif" font-size="14" font-weight="700">solve (s)</text>
<rect x="62" y="350" width="360" height="180" fill="#f8fafc" stroke="#cbd5e1"/>
<line x1="62" y1="530" x2="422" y2="530" stroke="#64748b"/>
<line x1="62" y1="350" x2="62" y2="530" stroke="#64748b"/>
<text x="12" y="362" font-family="sans-serif" font-size="10" fill="#64748b">86</text>
<text x="12" y="530" font-family="sans-serif" font-size="10" fill="#64748b">0.49</text>
<text x="46.0" y="548" font-family="sans-serif" font-size="10" fill="#64748b">1</text>
<text x="406.0" y="548" font-family="sans-serif" font-size="10" fill="#64748b">2</text>
<polyline points="62.0,530.0 422.0,352.4" fill="none" stroke="#2563eb" stroke-width="2.4"/>
<circle cx="62.0" cy="530.0" r="3.5" fill="#2563eb"/>
<circle cx="422.0" cy="352.4" r="3.5" fill="#2563eb"/>
<polyline points="62.0,523.9 422.0,353.0" fill="none" stroke="#dc2626" stroke-width="2.4"/>
<circle cx="62.0" cy="523.9" r="3.5" fill="#dc2626"/>
<circle cx="422.0" cy="353.0" r="3.5" fill="#dc2626"/>
<circle cx="62.0" cy="472.4" r="3.5" fill="#16a34a"/>
<circle cx="62.0" cy="490.5" r="3.5" fill="#9333ea"/>
<polyline points="62.0,523.9 422.0,350.0" fill="none" stroke="#ea580c" stroke-width="2.4"/>
<circle cx="62.0" cy="523.9" r="3.5" fill="#ea580c"/>
<circle cx="422.0" cy="350.0" r="3.5" fill="#ea580c"/>
<text x="452" y="336" font-family="sans-serif" font-size="14" font-weight="700">pipeline total (s)</text>
<rect x="452" y="350" width="360" height="180" fill="#f8fafc" stroke="#cbd5e1"/>
<line x1="452" y1="530" x2="812" y2="530" stroke="#64748b"/>
<line x1="452" y1="350" x2="452" y2="530" stroke="#64748b"/>
<text x="402" y="362" font-family="sans-serif" font-size="10" fill="#64748b">124</text>
<text x="402" y="530" font-family="sans-serif" font-size="10" fill="#64748b">3</text>
<text x="436.0" y="548" font-family="sans-serif" font-size="10" fill="#64748b">1</text>
<text x="796.0" y="548" font-family="sans-serif" font-size="10" fill="#64748b">2</text>
<polyline points="452.0,530.0 812.0,356.0" fill="none" stroke="#2563eb" stroke-width="2.4"/>
<circle cx="452.0" cy="530.0" r="3.5" fill="#2563eb"/>
<circle cx="812.0" cy="356.0" r="3.5" fill="#2563eb"/>
<polyline points="452.0,514.5 812.0,352.1" fill="none" stroke="#dc2626" stroke-width="2.4"/>
<circle cx="452.0" cy="514.5" r="3.5" fill="#dc2626"/>
<circle cx="812.0" cy="352.1" r="3.5" fill="#dc2626"/>
<circle cx="452.0" cy="419.0" r="3.5" fill="#16a34a"/>
<circle cx="452.0" cy="438.3" r="3.5" fill="#9333ea"/>
<polyline points="452.0,508.1 812.0,350.0" fill="none" stroke="#ea580c" stroke-width="2.4"/>
<circle cx="452.0" cy="508.1" r="3.5" fill="#ea580c"/>
<circle cx="812.0" cy="350.0" r="3.5" fill="#ea580c"/>
<text x="842" y="336" font-family="sans-serif" font-size="14" font-weight="700">unique ILP vars</text>
<rect x="842" y="350" width="360" height="180" fill="#f8fafc" stroke="#cbd5e1"/>
<line x1="842" y1="530" x2="1202" y2="530" stroke="#64748b"/>
<line x1="842" y1="350" x2="842" y2="530" stroke="#64748b"/>
<text x="792" y="362" font-family="sans-serif" font-size="10" fill="#64748b">488.5K</text>
<text x="792" y="530" font-family="sans-serif" font-size="10" fill="#64748b">13.0K</text>
<text x="826.0" y="548" font-family="sans-serif" font-size="10" fill="#64748b">1</text>
<text x="1186.0" y="548" font-family="sans-serif" font-size="10" fill="#64748b">2</text>
<polyline points="842.0,530.0 1202.0,350.6" fill="none" stroke="#2563eb" stroke-width="2.4"/>
<circle cx="842.0" cy="530.0" r="3.5" fill="#2563eb"/>
<circle cx="1202.0" cy="350.6" r="3.5" fill="#2563eb"/>
<polyline points="842.0,526.8 1202.0,350.0" fill="none" stroke="#dc2626" stroke-width="2.4"/>
<circle cx="842.0" cy="526.8" r="3.5" fill="#dc2626"/>
<circle cx="1202.0" cy="350.0" r="3.5" fill="#dc2626"/>
<circle cx="842.0" cy="515.7" r="3.5" fill="#16a34a"/>
<circle cx="842.0" cy="520.2" r="3.5" fill="#9333ea"/>
<polyline points="842.0,526.6 1202.0,350.1" fill="none" stroke="#ea580c" stroke-width="2.4"/>
<circle cx="842.0" cy="526.6" r="3.5" fill="#ea580c"/>
<circle cx="1202.0" cy="350.1" r="3.5" fill="#ea580c"/>
<text x="1232" y="336" font-family="sans-serif" font-size="14" font-weight="700">constraints</text>
<rect x="1232" y="350" width="360" height="180" fill="#f8fafc" stroke="#cbd5e1"/>
<line x1="1232" y1="530" x2="1592" y2="530" stroke="#64748b"/>
<line x1="1232" y1="350" x2="1232" y2="530" stroke="#64748b"/>
<text x="1182" y="362" font-family="sans-serif" font-size="10" fill="#64748b">177.2K</text>
<text x="1182" y="530" font-family="sans-serif" font-size="10" fill="#64748b">7.0K</text>
<text x="1216.0" y="548" font-family="sans-serif" font-size="10" fill="#64748b">1</text>
<text x="1576.0" y="548" font-family="sans-serif" font-size="10" fill="#64748b">2</text>
<polyline points="1232.0,530.0 1592.0,351.3" fill="none" stroke="#2563eb" stroke-width="2.4"/>
<circle cx="1232.0" cy="530.0" r="3.5" fill="#2563eb"/>
<circle cx="1592.0" cy="351.3" r="3.5" fill="#2563eb"/>
<polyline points="1232.0,522.3 1592.0,350.2" fill="none" stroke="#dc2626" stroke-width="2.4"/>
<circle cx="1232.0" cy="522.3" r="3.5" fill="#dc2626"/>
<circle cx="1592.0" cy="350.2" r="3.5" fill="#dc2626"/>
<circle cx="1232.0" cy="486.0" r="3.5" fill="#16a34a"/>
<circle cx="1232.0" cy="500.0" r="3.5" fill="#9333ea"/>
<polyline points="1232.0,520.3 1592.0,350.0" fill="none" stroke="#ea580c" stroke-width="2.4"/>
<circle cx="1232.0" cy="520.3" r="3.5" fill="#ea580c"/>
<circle cx="1592.0" cy="350.0" r="3.5" fill="#ea580c"/>
</svg>